{
    "asset": {
        "version": "2.0",
        "generator": "Open Asset Import Library (assimp v5.0.639693989)"
    },
    "accessors": [
        {
            "bufferView": 0,
            "byteOffset": 0,
            "componentType": 5126,
            "count": 529,
            "type": "VEC3",
            "max": [
                -40.5267219543457,
                27.365522384643556,
                3.8192973136901857
            ],
            "min": [
                -46.44862747192383,
                19.29612922668457,
                -2.9160234928131105
            ]
        },
        {
            "bufferView": 1,
            "byteOffset": 0,
            "componentType": 5126,
            "count": 529,
            "type": "VEC3",
            "max": [
                0.9988905787467957,
                0.7877177596092224,
                0.9770227074623108
            ],
            "min": [
                -0.6488953232765198,
                -0.9942193627357483,
                -0.9346343278884888
            ]
        },
        {
            "bufferView": 2,
            "byteOffset": 0,
            "componentType": 5126,
            "count": 529,
            "type": "VEC4",
            "max": [
                1.0,
                1.0,
                1.0,
                1.0
            ],
            "min": [
                0.0,
                0.0,
                0.0,
                1.0
            ]
        }
    ],
    "buffers": [
        {
            "byteLength": 21160,
            "uri": "12481p2wc1j8.bin"
        }
    ],
    "bufferViews": [
        {
            "buffer": 0,
            "byteOffset": 0,
            "byteLength": 6348,
            "target": 34962
        },
        {
            "buffer": 0,
            "byteOffset": 6348,
            "byteLength": 6348,
            "target": 34962
        },
        {
            "buffer": 0,
            "byteOffset": 12696,
            "byteLength": 8464,
            "target": 34962
        }
    ],
    "materials": [
        {
            "name": "material",
            "pbrMetallicRoughness": {
                "metallicFactor": 0.0
            }
        }
    ],
    "meshes": [
        {
            "primitives": [
                {
                    "mode": 0,
                    "material": 0,
                    "attributes": {
                        "POSITION": 0,
                        "NORMAL": 1,
                        "COLOR_0": 2
                    }
                }
            ]
        }
    ],
    "nodes": [
        {
            "mesh": 0
        }
    ],
    "scenes": [
        {
            "nodes": [
                0
            ]
        }
    ],
    "scene": 0
}