{
    "asset": {
        "version": "2.0",
        "generator": "Open Asset Import Library (assimp v5.0.639693989)"
    },
    "accessors": [
        {
            "bufferView": 0,
            "byteOffset": 0,
            "componentType": 5126,
            "count": 68048,
            "type": "VEC3",
            "max": [
                8.230116844177246,
                6.049234390258789,
                3.9755263328552248
            ],
            "min": [
                -10.433319091796875,
                -2.993999481201172,
                -3.6789848804473879
            ]
        },
        {
            "bufferView": 1,
            "byteOffset": 0,
            "componentType": 5126,
            "count": 68048,
            "type": "VEC3",
            "max": [
                0.9999507069587708,
                0.9999142289161682,
                0.9998571872711182
            ],
            "min": [
                -0.999974250793457,
                -0.9999596476554871,
                -0.9999747276306152
            ]
        },
        {
            "bufferView": 2,
            "byteOffset": 0,
            "componentType": 5126,
            "count": 68048,
            "type": "VEC4",
            "max": [
                1.0,
                1.0,
                1.0,
                1.0
            ],
            "min": [
                0.0,
                0.0,
                0.0,
                1.0
            ]
        }
    ],
    "buffers": [
        {
            "byteLength": 2721920,
            "uri": "f1t5authxhpj.bin"
        }
    ],
    "bufferViews": [
        {
            "buffer": 0,
            "byteOffset": 0,
            "byteLength": 816576,
            "target": 34962
        },
        {
            "buffer": 0,
            "byteOffset": 816576,
            "byteLength": 816576,
            "target": 34962
        },
        {
            "buffer": 0,
            "byteOffset": 1633152,
            "byteLength": 1088768,
            "target": 34962
        }
    ],
    "materials": [
        {
            "name": "material",
            "pbrMetallicRoughness": {
                "metallicFactor": 0.0
            }
        }
    ],
    "meshes": [
        {
            "primitives": [
                {
                    "mode": 0,
                    "material": 0,
                    "attributes": {
                        "POSITION": 0,
                        "NORMAL": 1,
                        "COLOR_0": 2
                    }
                }
            ]
        }
    ],
    "nodes": [
        {
            "mesh": 0
        }
    ],
    "scenes": [
        {
            "nodes": [
                0
            ]
        }
    ],
    "scene": 0
}