{
    "asset": {
        "version": "2.0",
        "generator": "Open Asset Import Library (assimp v5.0.639693989)"
    },
    "accessors": [
        {
            "bufferView": 0,
            "byteOffset": 0,
            "componentType": 5126,
            "count": 44792,
            "type": "VEC3",
            "max": [
                4.0901288986206059,
                7.75994873046875,
                3.120600700378418
            ],
            "min": [
                -8.31159782409668,
                -3.144857883453369,
                1.5566520690917969
            ]
        },
        {
            "bufferView": 1,
            "byteOffset": 0,
            "componentType": 5126,
            "count": 44792,
            "type": "VEC3",
            "max": [
                0.9999708533287048,
                0.9999332427978516,
                0.9999708533287048
            ],
            "min": [
                -0.9999002814292908,
                -0.999908447265625,
                -0.9999382495880127
            ]
        },
        {
            "bufferView": 2,
            "byteOffset": 0,
            "componentType": 5126,
            "count": 44792,
            "type": "VEC4",
            "max": [
                1.0,
                1.0,
                1.0,
                1.0
            ],
            "min": [
                0.0,
                0.0,
                0.0,
                1.0
            ]
        }
    ],
    "buffers": [
        {
            "byteLength": 1791680,
            "uri": "t8sgpcjyna4c.bin"
        }
    ],
    "bufferViews": [
        {
            "buffer": 0,
            "byteOffset": 0,
            "byteLength": 537504,
            "target": 34962
        },
        {
            "buffer": 0,
            "byteOffset": 537504,
            "byteLength": 537504,
            "target": 34962
        },
        {
            "buffer": 0,
            "byteOffset": 1075008,
            "byteLength": 716672,
            "target": 34962
        }
    ],
    "materials": [
        {
            "name": "material",
            "pbrMetallicRoughness": {
                "metallicFactor": 0.0
            }
        }
    ],
    "meshes": [
        {
            "primitives": [
                {
                    "mode": 0,
                    "material": 0,
                    "attributes": {
                        "POSITION": 0,
                        "NORMAL": 1,
                        "COLOR_0": 2
                    }
                }
            ]
        }
    ],
    "nodes": [
        {
            "mesh": 0
        }
    ],
    "scenes": [
        {
            "nodes": [
                0
            ]
        }
    ],
    "scene": 0
}