{
    "asset": {
        "version": "2.0",
        "generator": "Open Asset Import Library (assimp v5.0.639693989)"
    },
    "accessors": [
        {
            "bufferView": 0,
            "byteOffset": 0,
            "componentType": 5126,
            "count": 22516,
            "type": "VEC3",
            "max": [
                3.7669718265533449,
                5.362852573394775,
                -1.9170446395874024
            ],
            "min": [
                -4.506401062011719,
                -10.055191040039063,
                -7.506593704223633
            ]
        },
        {
            "bufferView": 1,
            "byteOffset": 0,
            "componentType": 5126,
            "count": 22516,
            "type": "VEC3",
            "max": [
                0.9999557733535767,
                0.9999194145202637,
                0.9999392032623291
            ],
            "min": [
                -0.9999382495880127,
                -0.9987979531288147,
                -0.9999000430107117
            ]
        },
        {
            "bufferView": 2,
            "byteOffset": 0,
            "componentType": 5126,
            "count": 22516,
            "type": "VEC4",
            "max": [
                1.0,
                1.0,
                1.0,
                1.0
            ],
            "min": [
                0.0,
                0.0,
                0.0,
                1.0
            ]
        }
    ],
    "buffers": [
        {
            "byteLength": 900640,
            "uri": "91g4vhntxhmr.bin"
        }
    ],
    "bufferViews": [
        {
            "buffer": 0,
            "byteOffset": 0,
            "byteLength": 270192,
            "target": 34962
        },
        {
            "buffer": 0,
            "byteOffset": 270192,
            "byteLength": 270192,
            "target": 34962
        },
        {
            "buffer": 0,
            "byteOffset": 540384,
            "byteLength": 360256,
            "target": 34962
        }
    ],
    "materials": [
        {
            "name": "material",
            "pbrMetallicRoughness": {
                "metallicFactor": 0.0
            }
        }
    ],
    "meshes": [
        {
            "primitives": [
                {
                    "mode": 0,
                    "material": 0,
                    "attributes": {
                        "POSITION": 0,
                        "NORMAL": 1,
                        "COLOR_0": 2
                    }
                }
            ]
        }
    ],
    "nodes": [
        {
            "mesh": 0
        }
    ],
    "scenes": [
        {
            "nodes": [
                0
            ]
        }
    ],
    "scene": 0
}