{
    "asset": {
        "version": "2.0",
        "generator": "Open Asset Import Library (assimp v5.0.639693989)"
    },
    "accessors": [
        {
            "bufferView": 0,
            "byteOffset": 0,
            "componentType": 5126,
            "count": 34437,
            "type": "VEC3",
            "max": [
                5.944398880004883,
                6.389671325683594,
                2.6406941413879396
            ],
            "min": [
                -9.591922760009766,
                -7.1206512451171879,
                -8.263041496276856
            ]
        },
        {
            "bufferView": 1,
            "byteOffset": 0,
            "componentType": 5126,
            "count": 34437,
            "type": "VEC3",
            "max": [
                0.9999896287918091,
                0.9999183416366577,
                0.999946117401123
            ],
            "min": [
                -0.999879777431488,
                -0.999894917011261,
                -0.9999759197235107
            ]
        },
        {
            "bufferView": 2,
            "byteOffset": 0,
            "componentType": 5126,
            "count": 34437,
            "type": "VEC4",
            "max": [
                1.0,
                1.0,
                1.0,
                1.0
            ],
            "min": [
                0.0,
                0.0,
                0.0,
                1.0
            ]
        }
    ],
    "buffers": [
        {
            "byteLength": 1377480,
            "uri": "gsnpzphlrxmk.bin"
        }
    ],
    "bufferViews": [
        {
            "buffer": 0,
            "byteOffset": 0,
            "byteLength": 413244,
            "target": 34962
        },
        {
            "buffer": 0,
            "byteOffset": 413244,
            "byteLength": 413244,
            "target": 34962
        },
        {
            "buffer": 0,
            "byteOffset": 826488,
            "byteLength": 550992,
            "target": 34962
        }
    ],
    "materials": [
        {
            "name": "material",
            "pbrMetallicRoughness": {
                "metallicFactor": 0.0
            }
        }
    ],
    "meshes": [
        {
            "primitives": [
                {
                    "mode": 0,
                    "material": 0,
                    "attributes": {
                        "POSITION": 0,
                        "NORMAL": 1,
                        "COLOR_0": 2
                    }
                }
            ]
        }
    ],
    "nodes": [
        {
            "mesh": 0
        }
    ],
    "scenes": [
        {
            "nodes": [
                0
            ]
        }
    ],
    "scene": 0
}