{
    "asset": {
        "version": "2.0",
        "generator": "Open Asset Import Library (assimp v5.0.639693989)"
    },
    "accessors": [
        {
            "bufferView": 0,
            "byteOffset": 0,
            "componentType": 5126,
            "count": 109902,
            "type": "VEC3",
            "max": [
                7.414112091064453,
                10.34445571899414,
                6.9836955070495609
            ],
            "min": [
                -8.992168426513672,
                -0.030229806900024415,
                -1.3340644836425782
            ]
        },
        {
            "bufferView": 1,
            "byteOffset": 0,
            "componentType": 5126,
            "count": 109902,
            "type": "VEC3",
            "max": [
                0.9999871850013733,
                0.9999333620071411,
                0.9999872446060181
            ],
            "min": [
                -0.9999468922615051,
                -0.9999333620071411,
                -0.9999871850013733
            ]
        },
        {
            "bufferView": 2,
            "byteOffset": 0,
            "componentType": 5126,
            "count": 109902,
            "type": "VEC4",
            "max": [
                1.0,
                1.0,
                1.0,
                1.0
            ],
            "min": [
                0.0,
                0.0,
                0.0,
                1.0
            ]
        }
    ],
    "buffers": [
        {
            "byteLength": 4396080,
            "uri": "jc0idgmu8ocz.bin"
        }
    ],
    "bufferViews": [
        {
            "buffer": 0,
            "byteOffset": 0,
            "byteLength": 1318824,
            "target": 34962
        },
        {
            "buffer": 0,
            "byteOffset": 1318824,
            "byteLength": 1318824,
            "target": 34962
        },
        {
            "buffer": 0,
            "byteOffset": 2637648,
            "byteLength": 1758432,
            "target": 34962
        }
    ],
    "materials": [
        {
            "name": "material",
            "pbrMetallicRoughness": {
                "metallicFactor": 0.0
            }
        }
    ],
    "meshes": [
        {
            "primitives": [
                {
                    "mode": 0,
                    "material": 0,
                    "attributes": {
                        "POSITION": 0,
                        "NORMAL": 1,
                        "COLOR_0": 2
                    }
                }
            ]
        }
    ],
    "nodes": [
        {
            "mesh": 0
        }
    ],
    "scenes": [
        {
            "nodes": [
                0
            ]
        }
    ],
    "scene": 0
}