{
    "asset": {
        "version": "2.0",
        "generator": "Open Asset Import Library (assimp v5.0.639693989)"
    },
    "accessors": [
        {
            "bufferView": 0,
            "byteOffset": 0,
            "componentType": 5126,
            "count": 122743,
            "type": "VEC3",
            "max": [
                1.5922026634216309,
                7.263511657714844,
                6.779018402099609
            ],
            "min": [
                -5.584470748901367,
                -3.1581811904907228,
                -0.3151674270629883
            ]
        },
        {
            "bufferView": 1,
            "byteOffset": 0,
            "componentType": 5126,
            "count": 122743,
            "type": "VEC3",
            "max": [
                0.9999638199806213,
                0.999908447265625,
                0.9999638795852661
            ],
            "min": [
                -0.9999371767044067,
                -0.9995601177215576,
                -0.9999574422836304
            ]
        },
        {
            "bufferView": 2,
            "byteOffset": 0,
            "componentType": 5126,
            "count": 122743,
            "type": "VEC4",
            "max": [
                1.0,
                1.0,
                1.0,
                1.0
            ],
            "min": [
                0.0,
                0.0,
                0.0,
                1.0
            ]
        }
    ],
    "buffers": [
        {
            "byteLength": 4909720,
            "uri": "0gra1my44qeg.bin"
        }
    ],
    "bufferViews": [
        {
            "buffer": 0,
            "byteOffset": 0,
            "byteLength": 1472916,
            "target": 34962
        },
        {
            "buffer": 0,
            "byteOffset": 1472916,
            "byteLength": 1472916,
            "target": 34962
        },
        {
            "buffer": 0,
            "byteOffset": 2945832,
            "byteLength": 1963888,
            "target": 34962
        }
    ],
    "materials": [
        {
            "name": "material",
            "pbrMetallicRoughness": {
                "metallicFactor": 0.0
            }
        }
    ],
    "meshes": [
        {
            "primitives": [
                {
                    "mode": 0,
                    "material": 0,
                    "attributes": {
                        "POSITION": 0,
                        "NORMAL": 1,
                        "COLOR_0": 2
                    }
                }
            ]
        }
    ],
    "nodes": [
        {
            "mesh": 0
        }
    ],
    "scenes": [
        {
            "nodes": [
                0
            ]
        }
    ],
    "scene": 0
}