{
    "asset": {
        "version": "2.0",
        "generator": "Open Asset Import Library (assimp v5.0.639693989)"
    },
    "accessors": [
        {
            "bufferView": 0,
            "byteOffset": 0,
            "componentType": 5126,
            "count": 64740,
            "type": "VEC3",
            "max": [
                20.31437873840332,
                -1.272306203842163,
                -18.048297882080079
            ],
            "min": [
                -18.329776763916017,
                -42.2442512512207,
                -68.40480041503906
            ]
        },
        {
            "bufferView": 1,
            "byteOffset": 0,
            "componentType": 5126,
            "count": 64740,
            "type": "VEC3",
            "max": [
                0.9999837875366211,
                0.9998988509178162,
                0.9999771118164063
            ],
            "min": [
                -0.9999837875366211,
                -0.9998825192451477,
                -0.9992911219596863
            ]
        },
        {
            "bufferView": 2,
            "byteOffset": 0,
            "componentType": 5126,
            "count": 64740,
            "type": "VEC4",
            "max": [
                1.0,
                1.0,
                1.0,
                1.0
            ],
            "min": [
                0.0,
                0.0,
                0.0,
                1.0
            ]
        }
    ],
    "buffers": [
        {
            "byteLength": 2589600,
            "uri": "qyjo6jth6ryw.bin"
        }
    ],
    "bufferViews": [
        {
            "buffer": 0,
            "byteOffset": 0,
            "byteLength": 776880,
            "target": 34962
        },
        {
            "buffer": 0,
            "byteOffset": 776880,
            "byteLength": 776880,
            "target": 34962
        },
        {
            "buffer": 0,
            "byteOffset": 1553760,
            "byteLength": 1035840,
            "target": 34962
        }
    ],
    "materials": [
        {
            "name": "material",
            "pbrMetallicRoughness": {
                "metallicFactor": 0.0
            }
        }
    ],
    "meshes": [
        {
            "primitives": [
                {
                    "mode": 0,
                    "material": 0,
                    "attributes": {
                        "POSITION": 0,
                        "NORMAL": 1,
                        "COLOR_0": 2
                    }
                }
            ]
        }
    ],
    "nodes": [
        {
            "mesh": 0
        }
    ],
    "scenes": [
        {
            "nodes": [
                0
            ]
        }
    ],
    "scene": 0
}