{
    "asset": {
        "version": "2.0",
        "generator": "Open Asset Import Library (assimp v5.0.639693989)"
    },
    "accessors": [
        {
            "bufferView": 0,
            "byteOffset": 0,
            "componentType": 5126,
            "count": 2017,
            "type": "VEC3",
            "max": [
                5.9405293464660648,
                5.528358459472656,
                4.635462284088135
            ],
            "min": [
                -9.130317687988282,
                -2.725482940673828,
                -3.493488311767578
            ]
        },
        {
            "bufferView": 1,
            "byteOffset": 0,
            "componentType": 5126,
            "count": 2017,
            "type": "VEC3",
            "max": [
                0.9973961114883423,
                0.9148648977279663,
                0.9906870722770691
            ],
            "min": [
                -0.9860318303108215,
                -0.999237060546875,
                -0.9018832445144653
            ]
        },
        {
            "bufferView": 2,
            "byteOffset": 0,
            "componentType": 5126,
            "count": 2017,
            "type": "VEC4",
            "max": [
                1.0,
                1.0,
                1.0,
                1.0
            ],
            "min": [
                0.0,
                0.0,
                0.0,
                1.0
            ]
        }
    ],
    "buffers": [
        {
            "byteLength": 80680,
            "uri": "9o2d7dnoh0f7.bin"
        }
    ],
    "bufferViews": [
        {
            "buffer": 0,
            "byteOffset": 0,
            "byteLength": 24204,
            "target": 34962
        },
        {
            "buffer": 0,
            "byteOffset": 24204,
            "byteLength": 24204,
            "target": 34962
        },
        {
            "buffer": 0,
            "byteOffset": 48408,
            "byteLength": 32272,
            "target": 34962
        }
    ],
    "materials": [
        {
            "name": "material",
            "pbrMetallicRoughness": {
                "metallicFactor": 0.0
            }
        }
    ],
    "meshes": [
        {
            "primitives": [
                {
                    "mode": 0,
                    "material": 0,
                    "attributes": {
                        "POSITION": 0,
                        "NORMAL": 1,
                        "COLOR_0": 2
                    }
                }
            ]
        }
    ],
    "nodes": [
        {
            "mesh": 0
        }
    ],
    "scenes": [
        {
            "nodes": [
                0
            ]
        }
    ],
    "scene": 0
}