{
    "asset": {
        "version": "2.0",
        "generator": "Open Asset Import Library (assimp v5.0.639693989)"
    },
    "accessors": [
        {
            "bufferView": 0,
            "byteOffset": 0,
            "componentType": 5126,
            "count": 61079,
            "type": "VEC3",
            "max": [
                3.3529810905456545,
                5.994153022766113,
                5.730315208435059
            ],
            "min": [
                -8.214777946472168,
                -0.1703948974609375,
                -7.164823532104492
            ]
        },
        {
            "bufferView": 1,
            "byteOffset": 0,
            "componentType": 5126,
            "count": 61079,
            "type": "VEC3",
            "max": [
                0.9999617338180542,
                0.9999333024024963,
                0.9998493194580078
            ],
            "min": [
                -0.9999617338180542,
                -0.9999333024024963,
                -0.9999709129333496
            ]
        },
        {
            "bufferView": 2,
            "byteOffset": 0,
            "componentType": 5126,
            "count": 61079,
            "type": "VEC4",
            "max": [
                1.0,
                1.0,
                1.0,
                1.0
            ],
            "min": [
                0.0,
                0.0,
                0.0,
                1.0
            ]
        }
    ],
    "buffers": [
        {
            "byteLength": 2443160,
            "uri": "5ufi3vo5u6tf.bin"
        }
    ],
    "bufferViews": [
        {
            "buffer": 0,
            "byteOffset": 0,
            "byteLength": 732948,
            "target": 34962
        },
        {
            "buffer": 0,
            "byteOffset": 732948,
            "byteLength": 732948,
            "target": 34962
        },
        {
            "buffer": 0,
            "byteOffset": 1465896,
            "byteLength": 977264,
            "target": 34962
        }
    ],
    "materials": [
        {
            "name": "material",
            "pbrMetallicRoughness": {
                "metallicFactor": 0.0
            }
        }
    ],
    "meshes": [
        {
            "primitives": [
                {
                    "mode": 0,
                    "material": 0,
                    "attributes": {
                        "POSITION": 0,
                        "NORMAL": 1,
                        "COLOR_0": 2
                    }
                }
            ]
        }
    ],
    "nodes": [
        {
            "mesh": 0
        }
    ],
    "scenes": [
        {
            "nodes": [
                0
            ]
        }
    ],
    "scene": 0
}