{
    "asset": {
        "version": "2.0",
        "generator": "Open Asset Import Library (assimp v5.0.639693989)"
    },
    "accessors": [
        {
            "bufferView": 0,
            "byteOffset": 0,
            "componentType": 5126,
            "count": 20303,
            "type": "VEC3",
            "max": [
                0.28138160705566409,
                6.519196510314941,
                3.555459976196289
            ],
            "min": [
                -5.408872604370117,
                -3.4794697761535646,
                -2.7149033546447756
            ]
        },
        {
            "bufferView": 1,
            "byteOffset": 0,
            "componentType": 5126,
            "count": 20303,
            "type": "VEC3",
            "max": [
                0.9999709129333496,
                0.9998911619186401,
                0.9999900460243225
            ],
            "min": [
                -0.9999324083328247,
                -0.9999249577522278,
                -0.9994562864303589
            ]
        },
        {
            "bufferView": 2,
            "byteOffset": 0,
            "componentType": 5126,
            "count": 20303,
            "type": "VEC4",
            "max": [
                1.0,
                1.0,
                1.0,
                1.0
            ],
            "min": [
                0.0,
                0.0,
                0.0,
                1.0
            ]
        }
    ],
    "buffers": [
        {
            "byteLength": 812120,
            "uri": "zojrurms00tp.bin"
        }
    ],
    "bufferViews": [
        {
            "buffer": 0,
            "byteOffset": 0,
            "byteLength": 243636,
            "target": 34962
        },
        {
            "buffer": 0,
            "byteOffset": 243636,
            "byteLength": 243636,
            "target": 34962
        },
        {
            "buffer": 0,
            "byteOffset": 487272,
            "byteLength": 324848,
            "target": 34962
        }
    ],
    "materials": [
        {
            "name": "material",
            "pbrMetallicRoughness": {
                "metallicFactor": 0.0
            }
        }
    ],
    "meshes": [
        {
            "primitives": [
                {
                    "mode": 0,
                    "material": 0,
                    "attributes": {
                        "POSITION": 0,
                        "NORMAL": 1,
                        "COLOR_0": 2
                    }
                }
            ]
        }
    ],
    "nodes": [
        {
            "mesh": 0
        }
    ],
    "scenes": [
        {
            "nodes": [
                0
            ]
        }
    ],
    "scene": 0
}