{
    "asset": {
        "version": "2.0",
        "generator": "Open Asset Import Library (assimp v5.0.639693989)"
    },
    "accessors": [
        {
            "bufferView": 0,
            "byteOffset": 0,
            "componentType": 5126,
            "count": 40438,
            "type": "VEC3",
            "max": [
                5.489940643310547,
                6.264567852020264,
                2.252779483795166
            ],
            "min": [
                -7.738610744476318,
                -5.1205596923828129,
                -2.5918521881103517
            ]
        },
        {
            "bufferView": 1,
            "byteOffset": 0,
            "componentType": 5126,
            "count": 40438,
            "type": "VEC3",
            "max": [
                0.9999709129333496,
                0.999908447265625,
                0.9999382495880127
            ],
            "min": [
                -0.9999002814292908,
                -0.9999861717224121,
                -0.9999382495880127
            ]
        },
        {
            "bufferView": 2,
            "byteOffset": 0,
            "componentType": 5126,
            "count": 40438,
            "type": "VEC4",
            "max": [
                1.0,
                1.0,
                1.0,
                1.0
            ],
            "min": [
                0.0,
                0.0,
                0.0,
                1.0
            ]
        }
    ],
    "buffers": [
        {
            "byteLength": 1617520,
            "uri": "g4h34df7v4lv.bin"
        }
    ],
    "bufferViews": [
        {
            "buffer": 0,
            "byteOffset": 0,
            "byteLength": 485256,
            "target": 34962
        },
        {
            "buffer": 0,
            "byteOffset": 485256,
            "byteLength": 485256,
            "target": 34962
        },
        {
            "buffer": 0,
            "byteOffset": 970512,
            "byteLength": 647008,
            "target": 34962
        }
    ],
    "materials": [
        {
            "name": "material",
            "pbrMetallicRoughness": {
                "metallicFactor": 0.0
            }
        }
    ],
    "meshes": [
        {
            "primitives": [
                {
                    "mode": 0,
                    "material": 0,
                    "attributes": {
                        "POSITION": 0,
                        "NORMAL": 1,
                        "COLOR_0": 2
                    }
                }
            ]
        }
    ],
    "nodes": [
        {
            "mesh": 0
        }
    ],
    "scenes": [
        {
            "nodes": [
                0
            ]
        }
    ],
    "scene": 0
}