{
    "asset": {
        "version": "2.0",
        "generator": "Open Asset Import Library (assimp v5.0.639693989)"
    },
    "accessors": [
        {
            "bufferView": 0,
            "byteOffset": 0,
            "componentType": 5126,
            "count": 40878,
            "type": "VEC3",
            "max": [
                54.59209442138672,
                -9.13241958618164,
                -75.91694641113281
            ],
            "min": [
                -32.423484802246097,
                -140.1102294921875,
                -167.85336303710938
            ]
        },
        {
            "bufferView": 1,
            "byteOffset": 0,
            "componentType": 5126,
            "count": 40878,
            "type": "VEC3",
            "max": [
                0.9990223050117493,
                0.9999343156814575,
                0.9999221563339233
            ],
            "min": [
                -0.9999966025352478,
                -0.9977630972862244,
                -0.9163594245910645
            ]
        },
        {
            "bufferView": 2,
            "byteOffset": 0,
            "componentType": 5126,
            "count": 40878,
            "type": "VEC4",
            "max": [
                1.0,
                1.0,
                1.0,
                1.0
            ],
            "min": [
                0.0,
                0.0,
                0.0,
                1.0
            ]
        }
    ],
    "buffers": [
        {
            "byteLength": 1635120,
            "uri": "kp807jvr5wpy.bin"
        }
    ],
    "bufferViews": [
        {
            "buffer": 0,
            "byteOffset": 0,
            "byteLength": 490536,
            "target": 34962
        },
        {
            "buffer": 0,
            "byteOffset": 490536,
            "byteLength": 490536,
            "target": 34962
        },
        {
            "buffer": 0,
            "byteOffset": 981072,
            "byteLength": 654048,
            "target": 34962
        }
    ],
    "materials": [
        {
            "name": "material",
            "pbrMetallicRoughness": {
                "metallicFactor": 0.0
            }
        }
    ],
    "meshes": [
        {
            "primitives": [
                {
                    "mode": 0,
                    "material": 0,
                    "attributes": {
                        "POSITION": 0,
                        "NORMAL": 1,
                        "COLOR_0": 2
                    }
                }
            ]
        }
    ],
    "nodes": [
        {
            "mesh": 0
        }
    ],
    "scenes": [
        {
            "nodes": [
                0
            ]
        }
    ],
    "scene": 0
}