{
    "asset": {
        "version": "2.0",
        "generator": "Open Asset Import Library (assimp v5.0.639693989)"
    },
    "accessors": [
        {
            "bufferView": 0,
            "byteOffset": 0,
            "componentType": 5126,
            "count": 4573,
            "type": "VEC3",
            "max": [
                3.4586029052734377,
                6.210517883300781,
                5.617256164550781
            ],
            "min": [
                -5.80859375,
                -5.627674102783203,
                -5.22144889831543
            ]
        },
        {
            "bufferView": 1,
            "byteOffset": 0,
            "componentType": 5126,
            "count": 4573,
            "type": "VEC3",
            "max": [
                0.9999240636825562,
                0.9899677038192749,
                0.9990253448486328
            ],
            "min": [
                -0.9510487914085388,
                -0.9993410110473633,
                -0.9990894794464111
            ]
        },
        {
            "bufferView": 2,
            "byteOffset": 0,
            "componentType": 5126,
            "count": 4573,
            "type": "VEC4",
            "max": [
                1.0,
                1.0,
                1.0,
                1.0
            ],
            "min": [
                0.0,
                0.0,
                0.0,
                1.0
            ]
        }
    ],
    "buffers": [
        {
            "byteLength": 182920,
            "uri": "g2mx82wwwfac.bin"
        }
    ],
    "bufferViews": [
        {
            "buffer": 0,
            "byteOffset": 0,
            "byteLength": 54876,
            "target": 34962
        },
        {
            "buffer": 0,
            "byteOffset": 54876,
            "byteLength": 54876,
            "target": 34962
        },
        {
            "buffer": 0,
            "byteOffset": 109752,
            "byteLength": 73168,
            "target": 34962
        }
    ],
    "materials": [
        {
            "name": "material",
            "pbrMetallicRoughness": {
                "metallicFactor": 0.0
            }
        }
    ],
    "meshes": [
        {
            "primitives": [
                {
                    "mode": 0,
                    "material": 0,
                    "attributes": {
                        "POSITION": 0,
                        "NORMAL": 1,
                        "COLOR_0": 2
                    }
                }
            ]
        }
    ],
    "nodes": [
        {
            "mesh": 0
        }
    ],
    "scenes": [
        {
            "nodes": [
                0
            ]
        }
    ],
    "scene": 0
}