{
    "asset": {
        "version": "2.0",
        "generator": "Open Asset Import Library (assimp v5.0.639693989)"
    },
    "accessors": [
        {
            "bufferView": 0,
            "byteOffset": 0,
            "componentType": 5126,
            "count": 121132,
            "type": "VEC3",
            "max": [
                12.83765983581543,
                4.880602836608887,
                -6.466620445251465
            ],
            "min": [
                -18.207122802734376,
                -21.975753784179689,
                -23.196903228759767
            ]
        },
        {
            "bufferView": 1,
            "byteOffset": 0,
            "componentType": 5126,
            "count": 121132,
            "type": "VEC3",
            "max": [
                0.9999066591262817,
                0.999929666519165,
                0.9999043941497803
            ],
            "min": [
                -0.9999551177024841,
                -0.9999110102653503,
                -0.9997931718826294
            ]
        },
        {
            "bufferView": 2,
            "byteOffset": 0,
            "componentType": 5126,
            "count": 121132,
            "type": "VEC4",
            "max": [
                1.0,
                1.0,
                1.0,
                1.0
            ],
            "min": [
                0.0,
                0.0,
                0.0,
                1.0
            ]
        }
    ],
    "buffers": [
        {
            "byteLength": 4845280,
            "uri": "woi6fks14jes.bin"
        }
    ],
    "bufferViews": [
        {
            "buffer": 0,
            "byteOffset": 0,
            "byteLength": 1453584,
            "target": 34962
        },
        {
            "buffer": 0,
            "byteOffset": 1453584,
            "byteLength": 1453584,
            "target": 34962
        },
        {
            "buffer": 0,
            "byteOffset": 2907168,
            "byteLength": 1938112,
            "target": 34962
        }
    ],
    "materials": [
        {
            "name": "material",
            "pbrMetallicRoughness": {
                "metallicFactor": 0.0
            }
        }
    ],
    "meshes": [
        {
            "primitives": [
                {
                    "mode": 0,
                    "material": 0,
                    "attributes": {
                        "POSITION": 0,
                        "NORMAL": 1,
                        "COLOR_0": 2
                    }
                }
            ]
        }
    ],
    "nodes": [
        {
            "mesh": 0
        }
    ],
    "scenes": [
        {
            "nodes": [
                0
            ]
        }
    ],
    "scene": 0
}