{
    "asset": {
        "version": "2.0",
        "generator": "Open Asset Import Library (assimp v5.0.639693989)"
    },
    "accessors": [
        {
            "bufferView": 0,
            "byteOffset": 0,
            "componentType": 5126,
            "count": 84143,
            "type": "VEC3",
            "max": [
                33.954463958740237,
                -5.5549468994140629,
                -31.431148529052736
            ],
            "min": [
                -31.99994659423828,
                -43.08918762207031,
                -67.612060546875
            ]
        },
        {
            "bufferView": 1,
            "byteOffset": 0,
            "componentType": 5126,
            "count": 84143,
            "type": "VEC3",
            "max": [
                0.9999804496765137,
                0.9999333024024963,
                0.9999279379844666
            ],
            "min": [
                -0.9999804496765137,
                -0.9999333024024963,
                -0.9999804496765137
            ]
        },
        {
            "bufferView": 2,
            "byteOffset": 0,
            "componentType": 5126,
            "count": 84143,
            "type": "VEC4",
            "max": [
                1.0,
                1.0,
                1.0,
                1.0
            ],
            "min": [
                0.0,
                0.0,
                0.0,
                1.0
            ]
        }
    ],
    "buffers": [
        {
            "byteLength": 3365720,
            "uri": "5evia4wcbb5v.bin"
        }
    ],
    "bufferViews": [
        {
            "buffer": 0,
            "byteOffset": 0,
            "byteLength": 1009716,
            "target": 34962
        },
        {
            "buffer": 0,
            "byteOffset": 1009716,
            "byteLength": 1009716,
            "target": 34962
        },
        {
            "buffer": 0,
            "byteOffset": 2019432,
            "byteLength": 1346288,
            "target": 34962
        }
    ],
    "materials": [
        {
            "name": "material",
            "pbrMetallicRoughness": {
                "metallicFactor": 0.0
            }
        }
    ],
    "meshes": [
        {
            "primitives": [
                {
                    "mode": 0,
                    "material": 0,
                    "attributes": {
                        "POSITION": 0,
                        "NORMAL": 1,
                        "COLOR_0": 2
                    }
                }
            ]
        }
    ],
    "nodes": [
        {
            "mesh": 0
        }
    ],
    "scenes": [
        {
            "nodes": [
                0
            ]
        }
    ],
    "scene": 0
}