{
    "asset": {
        "version": "2.0",
        "generator": "Open Asset Import Library (assimp v5.0.639693989)"
    },
    "accessors": [
        {
            "bufferView": 0,
            "byteOffset": 0,
            "componentType": 5126,
            "count": 44396,
            "type": "VEC3",
            "max": [
                2.6366827487945558,
                6.189764976501465,
                4.616194725036621
            ],
            "min": [
                -5.850512504577637,
                -1.067948341369629,
                -1.1777843236923218
            ]
        },
        {
            "bufferView": 1,
            "byteOffset": 0,
            "componentType": 5126,
            "count": 44396,
            "type": "VEC3",
            "max": [
                0.9999688863754273,
                0.9999192953109741,
                0.9999356269836426
            ],
            "min": [
                -0.9999572038650513,
                -0.9991310238838196,
                -0.9999989867210388
            ]
        },
        {
            "bufferView": 2,
            "byteOffset": 0,
            "componentType": 5126,
            "count": 44396,
            "type": "VEC4",
            "max": [
                1.0,
                1.0,
                1.0,
                1.0
            ],
            "min": [
                0.0,
                0.0,
                0.0,
                1.0
            ]
        }
    ],
    "buffers": [
        {
            "byteLength": 1775840,
            "uri": "ddgfifzh7iyt.bin"
        }
    ],
    "bufferViews": [
        {
            "buffer": 0,
            "byteOffset": 0,
            "byteLength": 532752,
            "target": 34962
        },
        {
            "buffer": 0,
            "byteOffset": 532752,
            "byteLength": 532752,
            "target": 34962
        },
        {
            "buffer": 0,
            "byteOffset": 1065504,
            "byteLength": 710336,
            "target": 34962
        }
    ],
    "materials": [
        {
            "name": "material",
            "pbrMetallicRoughness": {
                "metallicFactor": 0.0
            }
        }
    ],
    "meshes": [
        {
            "primitives": [
                {
                    "mode": 0,
                    "material": 0,
                    "attributes": {
                        "POSITION": 0,
                        "NORMAL": 1,
                        "COLOR_0": 2
                    }
                }
            ]
        }
    ],
    "nodes": [
        {
            "mesh": 0
        }
    ],
    "scenes": [
        {
            "nodes": [
                0
            ]
        }
    ],
    "scene": 0
}