{
    "asset": {
        "version": "2.0",
        "generator": "Open Asset Import Library (assimp v5.0.639693989)"
    },
    "accessors": [
        {
            "bufferView": 0,
            "byteOffset": 0,
            "componentType": 5126,
            "count": 79739,
            "type": "VEC3",
            "max": [
                4.699129104614258,
                7.476634502410889,
                3.8853302001953127
            ],
            "min": [
                -8.008222579956055,
                -5.559046268463135,
                0.28736448287963869
            ]
        },
        {
            "bufferView": 1,
            "byteOffset": 0,
            "componentType": 5126,
            "count": 79739,
            "type": "VEC3",
            "max": [
                0.9999709129333496,
                0.999908447265625,
                0.9999382495880127
            ],
            "min": [
                -0.9999382495880127,
                -0.999908447265625,
                -0.9999382495880127
            ]
        },
        {
            "bufferView": 2,
            "byteOffset": 0,
            "componentType": 5126,
            "count": 79739,
            "type": "VEC4",
            "max": [
                1.0,
                1.0,
                1.0,
                1.0
            ],
            "min": [
                0.0,
                0.0,
                0.0,
                1.0
            ]
        }
    ],
    "buffers": [
        {
            "byteLength": 3189560,
            "uri": "5rux52iwoyak.bin"
        }
    ],
    "bufferViews": [
        {
            "buffer": 0,
            "byteOffset": 0,
            "byteLength": 956868,
            "target": 34962
        },
        {
            "buffer": 0,
            "byteOffset": 956868,
            "byteLength": 956868,
            "target": 34962
        },
        {
            "buffer": 0,
            "byteOffset": 1913736,
            "byteLength": 1275824,
            "target": 34962
        }
    ],
    "materials": [
        {
            "name": "material",
            "pbrMetallicRoughness": {
                "metallicFactor": 0.0
            }
        }
    ],
    "meshes": [
        {
            "primitives": [
                {
                    "mode": 0,
                    "material": 0,
                    "attributes": {
                        "POSITION": 0,
                        "NORMAL": 1,
                        "COLOR_0": 2
                    }
                }
            ]
        }
    ],
    "nodes": [
        {
            "mesh": 0
        }
    ],
    "scenes": [
        {
            "nodes": [
                0
            ]
        }
    ],
    "scene": 0
}